# xmcd CD database file
#
# Track frame offsets:
#	150
#	19537
#	35237
#	57425
#	76032
#	95550
#	120012
#	139307
#
# Disc length: 2156 seconds
#
# Revision: 0
# Processed by: cddbd v1.5PL3 Copyright (c) Steve Scherf et al.
# Submitted via: CDex 1.50Beta7
#
DISCID=5e086a08
DTITLE=Licca - GRADUATION
DYEAR=2003
DGENRE=JPop
TTITLE0=GOOD LOVE
TTITLE1=Always
TTITLE2=深呼吸して I NEED YOU(Yu solo)
TTITLE3=神様にお願い(Haruka solo)
TTITLE4=1・2 CHECK!
TTITLE5=Pieces(Ayana solo)
TTITLE6=get back -ele・funk mix-
TTITLE7=get back
EXTD=YEAR: 2003
EXTT0=
EXTT1=
EXTT2=
EXTT3=
EXTT4=
EXTT5=
EXTT6=
EXTT7=
PLAYORDER=
